<svg xmlns="http://www.w3.org/2000/svg" width="80" height="40" class="lds-stripe" preserveAspectRatio="xMidYMid" viewBox="-200 -200 500 500" style="background:#eee 0 0"><defs><pattern id="blah" width="100" height="100" x="0" y="0" patternUnits="userSpaceOnUse"><g transform="translate(7.8 0)"><g transform="rotate(20 50 50) scale(1.2)"><rect width="10" height="120" x="-20" y="-10" fill="{{ .Page.Site.Params.themeColor }}"/><rect width="10" height="120" x="-10" y="-10" fill="#eee"/><rect width="10" height="120" x="0" y="-10" fill="{{ .Page.Site.Params.themeColor }}"/><rect width="10" height="120" x="10" y="-10" fill="#eee"/><rect width="10" height="120" x="20" y="-10" fill="{{ .Page.Site.Params.themeColor }}"/><rect width="10" height="120" x="30" y="-10" fill="#eee"/><rect width="10" height="120" x="40" y="-10" fill="{{ .Page.Site.Params.themeColor }}"/><rect width="10" height="120" x="50" y="-10" fill="#eee"/><rect width="10" height="120" x="60" y="-10" fill="{{ .Page.Site.Params.themeColor }}"/><rect width="10" height="120" x="70" y="-10" fill="#eee"/><rect width="10" height="120" x="80" y="-10" fill="{{ .Page.Site.Params.themeColor }}"/><rect width="10" height="120" x="90" y="-10" fill="#eee"/><rect width="10" height="120" x="100" y="-10" fill="{{ .Page.Site.Params.themeColor }}"/><rect width="10" height="120" x="110" y="-10" fill="{{ .Page.Site.Params.themeColor }}"/></g><animateTransform attributeName="transform" dur="1s" keyTimes="0;1" repeatCount="indefinite" type="translate" values="0 0;26 0"/></g></pattern></defs><rect width="90" height="28" x="5" y="36" fill="url(#blah)" stroke="{{ .Page.Site.Params.themeColor }}" stroke-width="5" rx="15" ry="15"/></svg>